<?xml version="1.0" encoding="utf-8"?>
<!-- Svg Vector Icons : http://www.onlinewebfonts.com/icon -->
<!DOCTYPE svg PUBLIC "-//W3C//DTD SVG 1.1//EN" "http://www.w3.org/Graphics/SVG/1.1/DTD/svg11.dtd">
<svg version="1.1" xmlns="http://www.w3.org/2000/svg" xmlns:xlink="http://www.w3.org/1999/xlink" x="0px" y="0px" viewBox="0 0 1000 1000" enable-background="new 0 0 1000 1000" xml:space="preserve">
<metadata> Svg Vector Icons : http://www.onlinewebfonts.com/icon </metadata>
<g><path d="M710.7,10H289.3c-59.6,0-107.7,48.2-107.7,107.8v764.4c0,59.5,48.2,107.7,107.7,107.7h421.4c59.7,0,107.8-48.2,107.8-107.7V117.7C818.5,58.2,770.4,10,710.7,10z M420.8,39.3h158.4c9.6,0,17.3,7.7,17.3,17.4c0,9.5-7.7,17.2-17.3,17.2H420.8c-9.6,0-17.2-7.7-17.2-17.2C403.6,47.1,411.3,39.3,420.8,39.3z M388.9,910.6h-76.3c-10.1,0-18.4-8.2-18.4-18.3s8.2-18.2,18.4-18.2h76.3c10.1,0,18.2,8.1,18.2,18.2S399,910.6,388.9,910.6z M566,925.2c0,12.1-10,21.9-22,21.9l-80,0c-12.1,0-21.9-9.8-21.9-21.9v-22.8c0-12.2,9.9-22,21.9-22h80c12.1,0,22,9.8,22,22V925.2z M687.5,914.5h-76.2c-10.2,0-18.3-8.1-18.3-18.3c0-10.1,8.1-18.1,18.3-18.1h76.2c10.2,0,18.4,8,18.4,18.1C705.8,906.4,697.6,914.5,687.5,914.5z M739.1,775.8c0,12.1-9.8,22-22,22l-434.1,0c-12.1,0-21.9-9.9-21.9-22V146.3c0-12.1,9.9-22,21.9-22h434.1c12.3,0,22,9.9,22,22V775.8z"/><path d="M388,562.2c0,11,8.7,19.8,19.9,19.8h22.3v55.8c0,14,11,25.8,25.5,25.8c13.7,0,25.3-11.9,25.3-25.8V582h39.3v55.8c0,14,10.8,25.8,25.1,25.8c14.2,0,25.3-11.9,25.3-25.8V582h22.4c11.2,0,19.9-8.9,19.9-19.8l0-183.8H388V562.2z"/><path d="M652.8,377.7c-14,0-25.3,11.4-25.3,25.8v100.4c0,14.1,11.3,26,25.3,26c14.1,0,25.4-11.9,25.4-26V403.5C678.3,389.1,667,377.7,652.8,377.7z"/><path d="M347.3,377.7c-14.4,0-25.5,11.4-25.5,25.8v100.4c0,14.1,11,26,25.5,26c13.7,0,25.3-11.9,25.3-26l0-100.4C372.7,389.1,361.1,377.7,347.3,377.7z"/><path d="M553.6,283.4l20.9-30.3c1.4-2,1.1-4.4-0.7-5.2c-1.7-1-3.7-0.4-5.2,1.3l-21.8,31.3c-14.6-5.3-30.1-8.7-46.8-8.7c-16.7,0-32.6,3.4-46.9,8.7l-21.4-31.3c-1.5-1.7-3.5-2.8-5.2-1.3c-1.6,1-2.1,3.3-0.8,5.2l21,30.3c-33,15.7-56.2,44-59.2,78.9h225.3C609.3,327.6,586.6,298.6,553.6,283.4z M452.4,330.9c-6.8,0-12.3-5.4-12.3-12.5c0-6.8,5.5-12.2,12.3-12.2c7,0,12.5,5.4,12.5,12.2C464.9,325.5,459.4,330.9,452.4,330.9z M549.1,330.9c-6.7,0-12.5-5.4-12.5-12.5c0-6.8,5.8-12.2,12.5-12.2c7,0,12.7,5.4,12.7,12.2C561.8,325.5,556.1,330.9,549.1,330.9z"/></g>
</svg>