<?xml version="1.0" encoding="UTF-8"?>
<!DOCTYPE svg PUBLIC "-//W3C//DTD SVG 1.1//EN" "http://www.w3.org/Graphics/SVG/1.1/DTD/svg11.dtd">
<svg version="1.2" width="210mm" height="297mm" viewBox="0 0 21000 29700" preserveAspectRatio="xMidYMid" fill-rule="evenodd" stroke-width="28.222" stroke-linejoin="round" xmlns="http://www.w3.org/2000/svg" xmlns:ooo="http://xml.openoffice.org/svg/export" xmlns:xlink="http://www.w3.org/1999/xlink" xmlns:presentation="http://sun.com/xmlns/staroffice/presentation" xmlns:smil="http://www.w3.org/2001/SMIL20/" xmlns:anim="urn:oasis:names:tc:opendocument:xmlns:animation:1.0" xml:space="preserve">
 <defs class="ClipPathGroup">
  <clipPath id="presentation_clip_path" clipPathUnits="userSpaceOnUse">
   <rect x="0" y="0" width="21000" height="29700"/>
  </clipPath>
 </defs>
 <defs class="TextShapeIndex">
  <g ooo:slide="id1" ooo:id-list="id3 id4 id5 id6 id7 id8 id9 id10 id11 id12 id13 id14 id15 id16 id17 id18 id19 id20 id21 id22 id23 id24 id25 id26 id27 id28"/>
 </defs>
 <defs class="EmbeddedBulletChars">
  <g id="bullet-char-template(57356)" transform="scale(0.00048828125,-0.00048828125)">
   <path d="M 580,1141 L 1163,571 580,0 -4,571 580,1141 Z"/>
  </g>
  <g id="bullet-char-template(57354)" transform="scale(0.00048828125,-0.00048828125)">
   <path d="M 8,1128 L 1137,1128 1137,0 8,0 8,1128 Z"/>
  </g>
  <g id="bullet-char-template(10146)" transform="scale(0.00048828125,-0.00048828125)">
   <path d="M 174,0 L 602,739 174,1481 1456,739 174,0 Z M 1358,739 L 309,1346 659,739 1358,739 Z"/>
  </g>
  <g id="bullet-char-template(10132)" transform="scale(0.00048828125,-0.00048828125)">
   <path d="M 2015,739 L 1276,0 717,0 1260,543 174,543 174,936 1260,936 717,1481 1274,1481 2015,739 Z"/>
  </g>
  <g id="bullet-char-template(10007)" transform="scale(0.00048828125,-0.00048828125)">
   <path d="M 0,-2 C -7,14 -16,27 -25,37 L 356,567 C 262,823 215,952 215,954 215,979 228,992 255,992 264,992 276,990 289,987 310,991 331,999 354,1012 L 381,999 492,748 772,1049 836,1024 860,1049 C 881,1039 901,1025 922,1006 886,937 835,863 770,784 769,783 710,716 594,584 L 774,223 C 774,196 753,168 711,139 L 727,119 C 717,90 699,76 672,76 641,76 570,178 457,381 L 164,-76 C 142,-110 111,-127 72,-127 30,-127 9,-110 8,-76 1,-67 -2,-52 -2,-32 -2,-23 -1,-13 0,-2 Z"/>
  </g>
  <g id="bullet-char-template(10004)" transform="scale(0.00048828125,-0.00048828125)">
   <path d="M 285,-33 C 182,-33 111,30 74,156 52,228 41,333 41,471 41,549 55,616 82,672 116,743 169,778 240,778 293,778 328,747 346,684 L 369,508 C 377,444 397,411 428,410 L 1163,1116 C 1174,1127 1196,1133 1229,1133 1271,1133 1292,1118 1292,1087 L 1292,965 C 1292,929 1282,901 1262,881 L 442,47 C 390,-6 338,-33 285,-33 Z"/>
  </g>
  <g id="bullet-char-template(9679)" transform="scale(0.00048828125,-0.00048828125)">
   <path d="M 813,0 C 632,0 489,54 383,161 276,268 223,411 223,592 223,773 276,916 383,1023 489,1130 632,1184 813,1184 992,1184 1136,1130 1245,1023 1353,916 1407,772 1407,592 1407,412 1353,268 1245,161 1136,54 992,0 813,0 Z"/>
  </g>
  <g id="bullet-char-template(8226)" transform="scale(0.00048828125,-0.00048828125)">
   <path d="M 346,457 C 273,457 209,483 155,535 101,586 74,649 74,723 74,796 101,859 155,911 209,963 273,989 346,989 419,989 480,963 531,910 582,859 608,796 608,723 608,648 583,586 532,535 482,483 420,457 346,457 Z"/>
  </g>
  <g id="bullet-char-template(8211)" transform="scale(0.00048828125,-0.00048828125)">
   <path d="M -4,459 L 1135,459 1135,606 -4,606 -4,459 Z"/>
  </g>
 </defs>
 <defs class="TextEmbeddedBitmaps"/>
 <g>
  <g id="id2" class="Master_Slide">
   <g id="bg-id2" class="Background"/>
   <g id="bo-id2" class="BackgroundObjects"/>
  </g>
 </g>
 <g class="SlideGroup">
  <g>
   <g id="id1" class="Slide" clip-path="url(#presentation_clip_path)">
    <g class="Page">
     <g class="com.sun.star.drawing.CustomShape">
      <g id="id3">
       <rect class="BoundingBox" stroke="none" fill="none" x="3999" y="11399" width="804" height="604"/>
       <path fill="rgb(255,255,255)" stroke="none" d="M 4100,11400 C 4050,11400 4000,11450 4000,11500 L 4000,11900 C 4000,11950 4050,12001 4100,12001 L 4700,12001 C 4750,12001 4801,11950 4801,11900 L 4801,11500 C 4801,11450 4750,11400 4700,11400 L 4100,11400 Z M 4000,11400 L 4000,11400 Z M 4801,12001 L 4801,12001 Z"/>
       <path fill="none" stroke="rgb(52,101,164)" d="M 4100,11400 C 4050,11400 4000,11450 4000,11500 L 4000,11900 C 4000,11950 4050,12001 4100,12001 L 4700,12001 C 4750,12001 4801,11950 4801,11900 L 4801,11500 C 4801,11450 4750,11400 4700,11400 L 4100,11400 Z"/>
       <path fill="none" stroke="rgb(52,101,164)" d="M 4000,11400 L 4000,11400 Z"/>
       <path fill="none" stroke="rgb(52,101,164)" d="M 4801,12001 L 4801,12001 Z"/>
      </g>
     </g>
     <g class="com.sun.star.drawing.CustomShape">
      <g id="id4">
       <rect class="BoundingBox" stroke="none" fill="none" x="4999" y="11799" width="804" height="204"/>
       <path fill="rgb(255,255,255)" stroke="none" d="M 5033,11800 C 5016,11800 5000,11816 5000,11833 L 5000,11967 C 5000,11983 5016,12000 5033,12000 L 5767,12000 C 5784,12000 5801,11983 5801,11967 L 5801,11833 C 5801,11816 5784,11800 5767,11800 L 5033,11800 Z M 5000,11800 L 5000,11800 Z M 5801,12001 L 5801,12001 Z"/>
       <path fill="none" stroke="rgb(52,101,164)" d="M 5033,11800 C 5016,11800 5000,11816 5000,11833 L 5000,11967 C 5000,11983 5016,12000 5033,12000 L 5767,12000 C 5784,12000 5801,11983 5801,11967 L 5801,11833 C 5801,11816 5784,11800 5767,11800 L 5033,11800 Z"/>
       <path fill="none" stroke="rgb(52,101,164)" d="M 5000,11800 L 5000,11800 Z"/>
       <path fill="none" stroke="rgb(52,101,164)" d="M 5801,12001 L 5801,12001 Z"/>
      </g>
     </g>
     <g class="com.sun.star.drawing.CustomShape">
      <g id="id5">
       <rect class="BoundingBox" stroke="none" fill="none" x="5000" y="11800" width="804" height="204"/>
       <path fill="rgb(255,255,255)" stroke="none" d="M 5034,11801 C 5017,11801 5001,11817 5001,11834 L 5001,11968 C 5001,11984 5017,12001 5034,12001 L 5768,12001 C 5785,12001 5802,11984 5802,11968 L 5802,11834 C 5802,11817 5785,11801 5768,11801 L 5034,11801 Z M 5001,11801 L 5001,11801 Z M 5802,12002 L 5802,12002 Z"/>
       <path fill="none" stroke="rgb(52,101,164)" d="M 5034,11801 C 5017,11801 5001,11817 5001,11834 L 5001,11968 C 5001,11984 5017,12001 5034,12001 L 5768,12001 C 5785,12001 5802,11984 5802,11968 L 5802,11834 C 5802,11817 5785,11801 5768,11801 L 5034,11801 Z"/>
       <path fill="none" stroke="rgb(52,101,164)" d="M 5001,11801 L 5001,11801 Z"/>
       <path fill="none" stroke="rgb(52,101,164)" d="M 5802,12002 L 5802,12002 Z"/>
      </g>
     </g>
     <g class="com.sun.star.drawing.CustomShape">
      <g id="id6">
       <rect class="BoundingBox" stroke="none" fill="none" x="7999" y="11799" width="804" height="204"/>
       <path fill="rgb(255,255,255)" stroke="none" d="M 8033,11800 C 8016,11800 8000,11816 8000,11833 L 8000,11967 C 8000,11983 8016,12000 8033,12000 L 8767,12000 C 8784,12000 8801,11983 8801,11967 L 8801,11833 C 8801,11816 8784,11800 8767,11800 L 8033,11800 Z M 8000,11800 L 8000,11800 Z M 8801,12001 L 8801,12001 Z"/>
       <path fill="none" stroke="rgb(52,101,164)" d="M 8033,11800 C 8016,11800 8000,11816 8000,11833 L 8000,11967 C 8000,11983 8016,12000 8033,12000 L 8767,12000 C 8784,12000 8801,11983 8801,11967 L 8801,11833 C 8801,11816 8784,11800 8767,11800 L 8033,11800 Z"/>
       <path fill="none" stroke="rgb(52,101,164)" d="M 8000,11800 L 8000,11800 Z"/>
       <path fill="none" stroke="rgb(52,101,164)" d="M 8801,12001 L 8801,12001 Z"/>
      </g>
     </g>
     <g class="com.sun.star.drawing.CustomShape">
      <g id="id7">
       <rect class="BoundingBox" stroke="none" fill="none" x="6999" y="11799" width="804" height="204"/>
       <path fill="rgb(255,255,255)" stroke="none" d="M 7033,11800 C 7016,11800 7000,11816 7000,11833 L 7000,11967 C 7000,11983 7016,12000 7033,12000 L 7767,12000 C 7784,12000 7801,11983 7801,11967 L 7801,11833 C 7801,11816 7784,11800 7767,11800 L 7033,11800 Z M 7000,11800 L 7000,11800 Z M 7801,12001 L 7801,12001 Z"/>
       <path fill="none" stroke="rgb(52,101,164)" d="M 7033,11800 C 7016,11800 7000,11816 7000,11833 L 7000,11967 C 7000,11983 7016,12000 7033,12000 L 7767,12000 C 7784,12000 7801,11983 7801,11967 L 7801,11833 C 7801,11816 7784,11800 7767,11800 L 7033,11800 Z"/>
       <path fill="none" stroke="rgb(52,101,164)" d="M 7000,11800 L 7000,11800 Z"/>
       <path fill="none" stroke="rgb(52,101,164)" d="M 7801,12001 L 7801,12001 Z"/>
      </g>
     </g>
     <g class="com.sun.star.drawing.CustomShape">
      <g id="id8">
       <rect class="BoundingBox" stroke="none" fill="none" x="5999" y="11799" width="804" height="204"/>
       <path fill="rgb(255,255,255)" stroke="none" d="M 6033,11800 C 6016,11800 6000,11816 6000,11833 L 6000,11967 C 6000,11983 6016,12000 6033,12000 L 6767,12000 C 6784,12000 6801,11983 6801,11967 L 6801,11833 C 6801,11816 6784,11800 6767,11800 L 6033,11800 Z M 6000,11800 L 6000,11800 Z M 6801,12001 L 6801,12001 Z"/>
       <path fill="none" stroke="rgb(52,101,164)" d="M 6033,11800 C 6016,11800 6000,11816 6000,11833 L 6000,11967 C 6000,11983 6016,12000 6033,12000 L 6767,12000 C 6784,12000 6801,11983 6801,11967 L 6801,11833 C 6801,11816 6784,11800 6767,11800 L 6033,11800 Z"/>
       <path fill="none" stroke="rgb(52,101,164)" d="M 6000,11800 L 6000,11800 Z"/>
       <path fill="none" stroke="rgb(52,101,164)" d="M 6801,12001 L 6801,12001 Z"/>
      </g>
     </g>
     <g class="com.sun.star.drawing.CustomShape">
      <g id="id9">
       <rect class="BoundingBox" stroke="none" fill="none" x="4999" y="12399" width="804" height="604"/>
       <path fill="rgb(255,255,255)" stroke="none" d="M 5100,12400 C 5050,12400 5000,12450 5000,12500 L 5000,12900 C 5000,12950 5050,13001 5100,13001 L 5700,13001 C 5750,13001 5801,12950 5801,12900 L 5801,12500 C 5801,12450 5750,12400 5700,12400 L 5100,12400 Z M 5000,12400 L 5000,12400 Z M 5801,13001 L 5801,13001 Z"/>
       <path fill="none" stroke="rgb(52,101,164)" d="M 5100,12400 C 5050,12400 5000,12450 5000,12500 L 5000,12900 C 5000,12950 5050,13001 5100,13001 L 5700,13001 C 5750,13001 5801,12950 5801,12900 L 5801,12500 C 5801,12450 5750,12400 5700,12400 L 5100,12400 Z"/>
       <path fill="none" stroke="rgb(52,101,164)" d="M 5000,12400 L 5000,12400 Z"/>
       <path fill="none" stroke="rgb(52,101,164)" d="M 5801,13001 L 5801,13001 Z"/>
      </g>
     </g>
     <g class="com.sun.star.drawing.CustomShape">
      <g id="id10">
       <rect class="BoundingBox" stroke="none" fill="none" x="3999" y="12797" width="804" height="205"/>
       <path fill="rgb(255,255,255)" stroke="none" d="M 4033,12798 C 4016,12798 4000,12814 4000,12831 L 4000,12966 C 4000,12983 4016,13000 4033,13000 L 4767,13000 C 4784,13000 4801,12983 4801,12966 L 4801,12831 C 4801,12814 4784,12798 4767,12798 L 4033,12798 Z M 4000,12798 L 4000,12798 Z M 4801,13000 L 4801,13000 Z"/>
       <path fill="none" stroke="rgb(52,101,164)" d="M 4033,12798 C 4016,12798 4000,12814 4000,12831 L 4000,12966 C 4000,12983 4016,13000 4033,13000 L 4767,13000 C 4784,13000 4801,12983 4801,12966 L 4801,12831 C 4801,12814 4784,12798 4767,12798 L 4033,12798 Z"/>
       <path fill="none" stroke="rgb(52,101,164)" d="M 4000,12798 L 4000,12798 Z"/>
       <path fill="none" stroke="rgb(52,101,164)" d="M 4801,13000 L 4801,13000 Z"/>
      </g>
     </g>
     <g class="com.sun.star.drawing.CustomShape">
      <g id="id11">
       <rect class="BoundingBox" stroke="none" fill="none" x="7999" y="12799" width="804" height="204"/>
       <path fill="rgb(255,255,255)" stroke="none" d="M 8033,12800 C 8016,12800 8000,12816 8000,12833 L 8000,12967 C 8000,12983 8016,13000 8033,13000 L 8767,13000 C 8784,13000 8801,12983 8801,12967 L 8801,12833 C 8801,12816 8784,12800 8767,12800 L 8033,12800 Z M 8000,12800 L 8000,12800 Z M 8801,13001 L 8801,13001 Z"/>
       <path fill="none" stroke="rgb(52,101,164)" d="M 8033,12800 C 8016,12800 8000,12816 8000,12833 L 8000,12967 C 8000,12983 8016,13000 8033,13000 L 8767,13000 C 8784,13000 8801,12983 8801,12967 L 8801,12833 C 8801,12816 8784,12800 8767,12800 L 8033,12800 Z"/>
       <path fill="none" stroke="rgb(52,101,164)" d="M 8000,12800 L 8000,12800 Z"/>
       <path fill="none" stroke="rgb(52,101,164)" d="M 8801,13001 L 8801,13001 Z"/>
      </g>
     </g>
     <g class="com.sun.star.drawing.CustomShape">
      <g id="id12">
       <rect class="BoundingBox" stroke="none" fill="none" x="6999" y="12799" width="804" height="204"/>
       <path fill="rgb(255,255,255)" stroke="none" d="M 7033,12800 C 7016,12800 7000,12816 7000,12833 L 7000,12967 C 7000,12983 7016,13000 7033,13000 L 7767,13000 C 7784,13000 7801,12983 7801,12967 L 7801,12833 C 7801,12816 7784,12800 7767,12800 L 7033,12800 Z M 7000,12800 L 7000,12800 Z M 7801,13001 L 7801,13001 Z"/>
       <path fill="none" stroke="rgb(52,101,164)" d="M 7033,12800 C 7016,12800 7000,12816 7000,12833 L 7000,12967 C 7000,12983 7016,13000 7033,13000 L 7767,13000 C 7784,13000 7801,12983 7801,12967 L 7801,12833 C 7801,12816 7784,12800 7767,12800 L 7033,12800 Z"/>
       <path fill="none" stroke="rgb(52,101,164)" d="M 7000,12800 L 7000,12800 Z"/>
       <path fill="none" stroke="rgb(52,101,164)" d="M 7801,13001 L 7801,13001 Z"/>
      </g>
     </g>
     <g class="com.sun.star.drawing.CustomShape">
      <g id="id13">
       <rect class="BoundingBox" stroke="none" fill="none" x="5999" y="12799" width="804" height="204"/>
       <path fill="rgb(255,255,255)" stroke="none" d="M 6033,12800 C 6016,12800 6000,12816 6000,12833 L 6000,12967 C 6000,12983 6016,13000 6033,13000 L 6767,13000 C 6784,13000 6801,12983 6801,12967 L 6801,12833 C 6801,12816 6784,12800 6767,12800 L 6033,12800 Z M 6000,12800 L 6000,12800 Z M 6801,13001 L 6801,13001 Z"/>
       <path fill="none" stroke="rgb(52,101,164)" d="M 6033,12800 C 6016,12800 6000,12816 6000,12833 L 6000,12967 C 6000,12983 6016,13000 6033,13000 L 6767,13000 C 6784,13000 6801,12983 6801,12967 L 6801,12833 C 6801,12816 6784,12800 6767,12800 L 6033,12800 Z"/>
       <path fill="none" stroke="rgb(52,101,164)" d="M 6000,12800 L 6000,12800 Z"/>
       <path fill="none" stroke="rgb(52,101,164)" d="M 6801,13001 L 6801,13001 Z"/>
      </g>
     </g>
     <g class="com.sun.star.drawing.CustomShape">
      <g id="id14">
       <rect class="BoundingBox" stroke="none" fill="none" x="5999" y="13399" width="804" height="604"/>
       <path fill="rgb(255,255,255)" stroke="none" d="M 6100,13400 C 6050,13400 6000,13450 6000,13500 L 6000,13900 C 6000,13950 6050,14001 6100,14001 L 6700,14001 C 6750,14001 6801,13950 6801,13900 L 6801,13500 C 6801,13450 6750,13400 6700,13400 L 6100,13400 Z M 6000,13400 L 6000,13400 Z M 6801,14001 L 6801,14001 Z"/>
       <path fill="none" stroke="rgb(52,101,164)" d="M 6100,13400 C 6050,13400 6000,13450 6000,13500 L 6000,13900 C 6000,13950 6050,14001 6100,14001 L 6700,14001 C 6750,14001 6801,13950 6801,13900 L 6801,13500 C 6801,13450 6750,13400 6700,13400 L 6100,13400 Z"/>
       <path fill="none" stroke="rgb(52,101,164)" d="M 6000,13400 L 6000,13400 Z"/>
       <path fill="none" stroke="rgb(52,101,164)" d="M 6801,14001 L 6801,14001 Z"/>
      </g>
     </g>
     <g class="com.sun.star.drawing.CustomShape">
      <g id="id15">
       <rect class="BoundingBox" stroke="none" fill="none" x="3999" y="13797" width="804" height="205"/>
       <path fill="rgb(255,255,255)" stroke="none" d="M 4033,13798 C 4016,13798 4000,13814 4000,13831 L 4000,13966 C 4000,13983 4016,14000 4033,14000 L 4767,14000 C 4784,14000 4801,13983 4801,13966 L 4801,13831 C 4801,13814 4784,13798 4767,13798 L 4033,13798 Z M 4000,13798 L 4000,13798 Z M 4801,14000 L 4801,14000 Z"/>
       <path fill="none" stroke="rgb(52,101,164)" d="M 4033,13798 C 4016,13798 4000,13814 4000,13831 L 4000,13966 C 4000,13983 4016,14000 4033,14000 L 4767,14000 C 4784,14000 4801,13983 4801,13966 L 4801,13831 C 4801,13814 4784,13798 4767,13798 L 4033,13798 Z"/>
       <path fill="none" stroke="rgb(52,101,164)" d="M 4000,13798 L 4000,13798 Z"/>
       <path fill="none" stroke="rgb(52,101,164)" d="M 4801,14000 L 4801,14000 Z"/>
      </g>
     </g>
     <g class="com.sun.star.drawing.CustomShape">
      <g id="id16">
       <rect class="BoundingBox" stroke="none" fill="none" x="7999" y="13799" width="804" height="204"/>
       <path fill="rgb(255,255,255)" stroke="none" d="M 8033,13800 C 8016,13800 8000,13816 8000,13833 L 8000,13967 C 8000,13983 8016,14000 8033,14000 L 8767,14000 C 8784,14000 8801,13983 8801,13967 L 8801,13833 C 8801,13816 8784,13800 8767,13800 L 8033,13800 Z M 8000,13800 L 8000,13800 Z M 8801,14001 L 8801,14001 Z"/>
       <path fill="none" stroke="rgb(52,101,164)" d="M 8033,13800 C 8016,13800 8000,13816 8000,13833 L 8000,13967 C 8000,13983 8016,14000 8033,14000 L 8767,14000 C 8784,14000 8801,13983 8801,13967 L 8801,13833 C 8801,13816 8784,13800 8767,13800 L 8033,13800 Z"/>
       <path fill="none" stroke="rgb(52,101,164)" d="M 8000,13800 L 8000,13800 Z"/>
       <path fill="none" stroke="rgb(52,101,164)" d="M 8801,14001 L 8801,14001 Z"/>
      </g>
     </g>
     <g class="com.sun.star.drawing.CustomShape">
      <g id="id17">
       <rect class="BoundingBox" stroke="none" fill="none" x="6999" y="13799" width="804" height="204"/>
       <path fill="rgb(255,255,255)" stroke="none" d="M 7033,13800 C 7016,13800 7000,13816 7000,13833 L 7000,13967 C 7000,13983 7016,14000 7033,14000 L 7767,14000 C 7784,14000 7801,13983 7801,13967 L 7801,13833 C 7801,13816 7784,13800 7767,13800 L 7033,13800 Z M 7000,13800 L 7000,13800 Z M 7801,14001 L 7801,14001 Z"/>
       <path fill="none" stroke="rgb(52,101,164)" d="M 7033,13800 C 7016,13800 7000,13816 7000,13833 L 7000,13967 C 7000,13983 7016,14000 7033,14000 L 7767,14000 C 7784,14000 7801,13983 7801,13967 L 7801,13833 C 7801,13816 7784,13800 7767,13800 L 7033,13800 Z"/>
       <path fill="none" stroke="rgb(52,101,164)" d="M 7000,13800 L 7000,13800 Z"/>
       <path fill="none" stroke="rgb(52,101,164)" d="M 7801,14001 L 7801,14001 Z"/>
      </g>
     </g>
     <g class="com.sun.star.drawing.CustomShape">
      <g id="id18">
       <rect class="BoundingBox" stroke="none" fill="none" x="4999" y="13799" width="804" height="204"/>
       <path fill="rgb(255,255,255)" stroke="none" d="M 5033,13800 C 5016,13800 5000,13816 5000,13833 L 5000,13967 C 5000,13983 5016,14000 5033,14000 L 5767,14000 C 5784,14000 5801,13983 5801,13967 L 5801,13833 C 5801,13816 5784,13800 5767,13800 L 5033,13800 Z M 5000,13800 L 5000,13800 Z M 5801,14001 L 5801,14001 Z"/>
       <path fill="none" stroke="rgb(52,101,164)" d="M 5033,13800 C 5016,13800 5000,13816 5000,13833 L 5000,13967 C 5000,13983 5016,14000 5033,14000 L 5767,14000 C 5784,14000 5801,13983 5801,13967 L 5801,13833 C 5801,13816 5784,13800 5767,13800 L 5033,13800 Z"/>
       <path fill="none" stroke="rgb(52,101,164)" d="M 5000,13800 L 5000,13800 Z"/>
       <path fill="none" stroke="rgb(52,101,164)" d="M 5801,14001 L 5801,14001 Z"/>
      </g>
     </g>
     <g class="com.sun.star.drawing.CustomShape">
      <g id="id19">
       <rect class="BoundingBox" stroke="none" fill="none" x="6999" y="14399" width="804" height="604"/>
       <path fill="rgb(255,255,255)" stroke="none" d="M 7100,14400 C 7050,14400 7000,14450 7000,14500 L 7000,14900 C 7000,14950 7050,15001 7100,15001 L 7700,15001 C 7750,15001 7801,14950 7801,14900 L 7801,14500 C 7801,14450 7750,14400 7700,14400 L 7100,14400 Z M 7000,14400 L 7000,14400 Z M 7801,15001 L 7801,15001 Z"/>
       <path fill="none" stroke="rgb(52,101,164)" d="M 7100,14400 C 7050,14400 7000,14450 7000,14500 L 7000,14900 C 7000,14950 7050,15001 7100,15001 L 7700,15001 C 7750,15001 7801,14950 7801,14900 L 7801,14500 C 7801,14450 7750,14400 7700,14400 L 7100,14400 Z"/>
       <path fill="none" stroke="rgb(52,101,164)" d="M 7000,14400 L 7000,14400 Z"/>
       <path fill="none" stroke="rgb(52,101,164)" d="M 7801,15001 L 7801,15001 Z"/>
      </g>
     </g>
     <g class="com.sun.star.drawing.CustomShape">
      <g id="id20">
       <rect class="BoundingBox" stroke="none" fill="none" x="3999" y="14797" width="804" height="205"/>
       <path fill="rgb(255,255,255)" stroke="none" d="M 4033,14798 C 4016,14798 4000,14814 4000,14831 L 4000,14966 C 4000,14983 4016,15000 4033,15000 L 4767,15000 C 4784,15000 4801,14983 4801,14966 L 4801,14831 C 4801,14814 4784,14798 4767,14798 L 4033,14798 Z M 4000,14798 L 4000,14798 Z M 4801,15000 L 4801,15000 Z"/>
       <path fill="none" stroke="rgb(52,101,164)" d="M 4033,14798 C 4016,14798 4000,14814 4000,14831 L 4000,14966 C 4000,14983 4016,15000 4033,15000 L 4767,15000 C 4784,15000 4801,14983 4801,14966 L 4801,14831 C 4801,14814 4784,14798 4767,14798 L 4033,14798 Z"/>
       <path fill="none" stroke="rgb(52,101,164)" d="M 4000,14798 L 4000,14798 Z"/>
       <path fill="none" stroke="rgb(52,101,164)" d="M 4801,15000 L 4801,15000 Z"/>
      </g>
     </g>
     <g class="com.sun.star.drawing.CustomShape">
      <g id="id21">
       <rect class="BoundingBox" stroke="none" fill="none" x="7999" y="14799" width="804" height="204"/>
       <path fill="rgb(255,255,255)" stroke="none" d="M 8033,14800 C 8016,14800 8000,14816 8000,14833 L 8000,14967 C 8000,14983 8016,15000 8033,15000 L 8767,15000 C 8784,15000 8801,14983 8801,14967 L 8801,14833 C 8801,14816 8784,14800 8767,14800 L 8033,14800 Z M 8000,14800 L 8000,14800 Z M 8801,15001 L 8801,15001 Z"/>
       <path fill="none" stroke="rgb(52,101,164)" d="M 8033,14800 C 8016,14800 8000,14816 8000,14833 L 8000,14967 C 8000,14983 8016,15000 8033,15000 L 8767,15000 C 8784,15000 8801,14983 8801,14967 L 8801,14833 C 8801,14816 8784,14800 8767,14800 L 8033,14800 Z"/>
       <path fill="none" stroke="rgb(52,101,164)" d="M 8000,14800 L 8000,14800 Z"/>
       <path fill="none" stroke="rgb(52,101,164)" d="M 8801,15001 L 8801,15001 Z"/>
      </g>
     </g>
     <g class="com.sun.star.drawing.CustomShape">
      <g id="id22">
       <rect class="BoundingBox" stroke="none" fill="none" x="5999" y="14799" width="804" height="204"/>
       <path fill="rgb(255,255,255)" stroke="none" d="M 6033,14800 C 6016,14800 6000,14816 6000,14833 L 6000,14967 C 6000,14983 6016,15000 6033,15000 L 6767,15000 C 6784,15000 6801,14983 6801,14967 L 6801,14833 C 6801,14816 6784,14800 6767,14800 L 6033,14800 Z M 6000,14800 L 6000,14800 Z M 6801,15001 L 6801,15001 Z"/>
       <path fill="none" stroke="rgb(52,101,164)" d="M 6033,14800 C 6016,14800 6000,14816 6000,14833 L 6000,14967 C 6000,14983 6016,15000 6033,15000 L 6767,15000 C 6784,15000 6801,14983 6801,14967 L 6801,14833 C 6801,14816 6784,14800 6767,14800 L 6033,14800 Z"/>
       <path fill="none" stroke="rgb(52,101,164)" d="M 6000,14800 L 6000,14800 Z"/>
       <path fill="none" stroke="rgb(52,101,164)" d="M 6801,15001 L 6801,15001 Z"/>
      </g>
     </g>
     <g class="com.sun.star.drawing.CustomShape">
      <g id="id23">
       <rect class="BoundingBox" stroke="none" fill="none" x="4999" y="14799" width="804" height="204"/>
       <path fill="rgb(255,255,255)" stroke="none" d="M 5033,14800 C 5016,14800 5000,14816 5000,14833 L 5000,14967 C 5000,14983 5016,15000 5033,15000 L 5767,15000 C 5784,15000 5801,14983 5801,14967 L 5801,14833 C 5801,14816 5784,14800 5767,14800 L 5033,14800 Z M 5000,14800 L 5000,14800 Z M 5801,15001 L 5801,15001 Z"/>
       <path fill="none" stroke="rgb(52,101,164)" d="M 5033,14800 C 5016,14800 5000,14816 5000,14833 L 5000,14967 C 5000,14983 5016,15000 5033,15000 L 5767,15000 C 5784,15000 5801,14983 5801,14967 L 5801,14833 C 5801,14816 5784,14800 5767,14800 L 5033,14800 Z"/>
       <path fill="none" stroke="rgb(52,101,164)" d="M 5000,14800 L 5000,14800 Z"/>
       <path fill="none" stroke="rgb(52,101,164)" d="M 5801,15001 L 5801,15001 Z"/>
      </g>
     </g>
     <g class="com.sun.star.drawing.CustomShape">
      <g id="id24">
       <rect class="BoundingBox" stroke="none" fill="none" x="7999" y="15399" width="804" height="604"/>
       <path fill="rgb(255,255,255)" stroke="none" d="M 8100,15400 C 8050,15400 8000,15450 8000,15500 L 8000,15900 C 8000,15950 8050,16001 8100,16001 L 8700,16001 C 8750,16001 8801,15950 8801,15900 L 8801,15500 C 8801,15450 8750,15400 8700,15400 L 8100,15400 Z M 8000,15400 L 8000,15400 Z M 8801,16001 L 8801,16001 Z"/>
       <path fill="none" stroke="rgb(52,101,164)" d="M 8100,15400 C 8050,15400 8000,15450 8000,15500 L 8000,15900 C 8000,15950 8050,16001 8100,16001 L 8700,16001 C 8750,16001 8801,15950 8801,15900 L 8801,15500 C 8801,15450 8750,15400 8700,15400 L 8100,15400 Z"/>
       <path fill="none" stroke="rgb(52,101,164)" d="M 8000,15400 L 8000,15400 Z"/>
       <path fill="none" stroke="rgb(52,101,164)" d="M 8801,16001 L 8801,16001 Z"/>
      </g>
     </g>
     <g class="com.sun.star.drawing.CustomShape">
      <g id="id25">
       <rect class="BoundingBox" stroke="none" fill="none" x="3999" y="15797" width="804" height="205"/>
       <path fill="rgb(255,255,255)" stroke="none" d="M 4033,15798 C 4016,15798 4000,15814 4000,15831 L 4000,15966 C 4000,15983 4016,16000 4033,16000 L 4767,16000 C 4784,16000 4801,15983 4801,15966 L 4801,15831 C 4801,15814 4784,15798 4767,15798 L 4033,15798 Z M 4000,15798 L 4000,15798 Z M 4801,16000 L 4801,16000 Z"/>
       <path fill="none" stroke="rgb(52,101,164)" d="M 4033,15798 C 4016,15798 4000,15814 4000,15831 L 4000,15966 C 4000,15983 4016,16000 4033,16000 L 4767,16000 C 4784,16000 4801,15983 4801,15966 L 4801,15831 C 4801,15814 4784,15798 4767,15798 L 4033,15798 Z"/>
       <path fill="none" stroke="rgb(52,101,164)" d="M 4000,15798 L 4000,15798 Z"/>
       <path fill="none" stroke="rgb(52,101,164)" d="M 4801,16000 L 4801,16000 Z"/>
      </g>
     </g>
     <g class="com.sun.star.drawing.CustomShape">
      <g id="id26">
       <rect class="BoundingBox" stroke="none" fill="none" x="6999" y="15799" width="804" height="204"/>
       <path fill="rgb(255,255,255)" stroke="none" d="M 7033,15800 C 7016,15800 7000,15816 7000,15833 L 7000,15967 C 7000,15983 7016,16000 7033,16000 L 7767,16000 C 7784,16000 7801,15983 7801,15967 L 7801,15833 C 7801,15816 7784,15800 7767,15800 L 7033,15800 Z M 7000,15800 L 7000,15800 Z M 7801,16001 L 7801,16001 Z"/>
       <path fill="none" stroke="rgb(52,101,164)" d="M 7033,15800 C 7016,15800 7000,15816 7000,15833 L 7000,15967 C 7000,15983 7016,16000 7033,16000 L 7767,16000 C 7784,16000 7801,15983 7801,15967 L 7801,15833 C 7801,15816 7784,15800 7767,15800 L 7033,15800 Z"/>
       <path fill="none" stroke="rgb(52,101,164)" d="M 7000,15800 L 7000,15800 Z"/>
       <path fill="none" stroke="rgb(52,101,164)" d="M 7801,16001 L 7801,16001 Z"/>
      </g>
     </g>
     <g class="com.sun.star.drawing.CustomShape">
      <g id="id27">
       <rect class="BoundingBox" stroke="none" fill="none" x="5999" y="15799" width="804" height="204"/>
       <path fill="rgb(255,255,255)" stroke="none" d="M 6033,15800 C 6016,15800 6000,15816 6000,15833 L 6000,15967 C 6000,15983 6016,16000 6033,16000 L 6767,16000 C 6784,16000 6801,15983 6801,15967 L 6801,15833 C 6801,15816 6784,15800 6767,15800 L 6033,15800 Z M 6000,15800 L 6000,15800 Z M 6801,16001 L 6801,16001 Z"/>
       <path fill="none" stroke="rgb(52,101,164)" d="M 6033,15800 C 6016,15800 6000,15816 6000,15833 L 6000,15967 C 6000,15983 6016,16000 6033,16000 L 6767,16000 C 6784,16000 6801,15983 6801,15967 L 6801,15833 C 6801,15816 6784,15800 6767,15800 L 6033,15800 Z"/>
       <path fill="none" stroke="rgb(52,101,164)" d="M 6000,15800 L 6000,15800 Z"/>
       <path fill="none" stroke="rgb(52,101,164)" d="M 6801,16001 L 6801,16001 Z"/>
      </g>
     </g>
     <g class="com.sun.star.drawing.CustomShape">
      <g id="id28">
       <rect class="BoundingBox" stroke="none" fill="none" x="4999" y="15799" width="804" height="204"/>
       <path fill="rgb(255,255,255)" stroke="none" d="M 5033,15800 C 5016,15800 5000,15816 5000,15833 L 5000,15967 C 5000,15983 5016,16000 5033,16000 L 5767,16000 C 5784,16000 5801,15983 5801,15967 L 5801,15833 C 5801,15816 5784,15800 5767,15800 L 5033,15800 Z M 5000,15800 L 5000,15800 Z M 5801,16001 L 5801,16001 Z"/>
       <path fill="none" stroke="rgb(52,101,164)" d="M 5033,15800 C 5016,15800 5000,15816 5000,15833 L 5000,15967 C 5000,15983 5016,16000 5033,16000 L 5767,16000 C 5784,16000 5801,15983 5801,15967 L 5801,15833 C 5801,15816 5784,15800 5767,15800 L 5033,15800 Z"/>
       <path fill="none" stroke="rgb(52,101,164)" d="M 5000,15800 L 5000,15800 Z"/>
       <path fill="none" stroke="rgb(52,101,164)" d="M 5801,16001 L 5801,16001 Z"/>
      </g>
     </g>
    </g>
   </g>
  </g>
 </g>
</svg>